<?xml version="1.0"?>
<svg xmlns="http://www.w3.org/2000/svg" xmlns:xlink="http://www.w3.org/1999/xlink" version="1.1" id="Capa_1" x="0px" y="0px" viewBox="0 0 284.4 284.4" style="enable-background:new 0 0 284.4 284.4;" xml:space="preserve" width="512px" height="512px"><g><g>
	<g>
		<g>
			<path d="M264,26.4C251.2,13.6,234,6,214.4,6c-19.2,0-36.8,8-49.6,20.4c-12.8,12.8-20.4,30-20.4,49.6c0,8.4,6.8,15.2,15.2,15.2     s15.2-6.8,15.2-15.2c0-10.8,4.4-20.8,11.6-28c7.2-7.2,17.2-11.6,28-11.6s20.8,4.4,28,11.6S254,65.2,254,76     c0,10.8-4.4,20.8-11.6,28c-7.2,7.2-17.2,11.6-28,11.6c-0.4,0-0.8,0-1.2,0h-186c-8.4,0-15.2,6.8-15.2,15.2     c0,8.4,6.8,15.2,15.2,15.2h186c0.4,0,0.8,0,1.2,0c19.2,0,36.8-8,49.6-20.4c12.8-12.8,20.4-30,20.4-49.6     C284.4,56.8,276.4,39.2,264,26.4z" data-original="#000000" class="active-path" data-old_color="#000000" fill="#FFFFFF"/>
			<path d="M160.8,163.2c-0.4,0-0.8,0-1.2,0H15.2C6.8,163.2,0,170,0,178.4c0.4,8,7.2,14.8,15.6,14.8H160c0.4,0,0.8,0,1.2,0     c7.6,0,14.4,3.2,19.6,8c4.8,4.8,8,12,8,19.6c0,7.6-3.2,14.4-8,19.6c-4.8,4.8-12,8-19.6,8c-7.6,0-14.4-3.2-19.6-8     c-4.8-4.8-8-12-8-19.6c0-8.4-6.8-15.2-15.2-15.2c-8.4,0-15.2,6.8-15.2,15.2c0,16,6.4,30.4,16.8,40.8     c10.4,10.4,24.8,16.8,40.8,16.8s30.4-6.4,40.8-16.8c10.4-10.4,16.8-24.8,16.8-40.8s-6.4-30.4-16.8-40.8     C191.2,169.6,176.8,163.2,160.8,163.2z" data-original="#000000" class="active-path" data-old_color="#000000" fill="#FFFFFF"/>
		</g>
	</g>
</g></g> </svg>
